:SAMPLES-PER-SECOND 30
:FULLY-SPECIFIED
:DEGREES
361
root  25.9943 39.19 14.5512 -177.191 -62.2514 170.491
RightUpLeg  -15.9792 -14.2906 -6.71606
RightLeg  16.9465 -0.952195 -0.376964
RightFoot  -7.82009 -0.207248 5.01613
RightToes  -2.21189e-009 0 -3.6325e-017
Spine  11.7883 -1.81407 -2.9272
Spine1  3.7267 -2.29594 -0.0645634
HEad  15.2675 -41.3795 -34.8877
LeftShoulder1  0.0534556 3.35255 -29.1809
LeftArm  1.68192 -2.33748 -46.4942
LeftForeArm  16.833 -15.3914 -6.75403
LeftHand  -0.0560257 3.80083 2.75237
RightShoulder  -0.384987 -4.71949 24.6914
RightArm  12.3216 -5.41278 47.0469
RightForeArm  -1.92556 27.5442 6.04338
RightHand  -0.629234 6.67109 -6.38606
LeftUpLeg  6.00569 7.10043 -2.35413
LeftLeg  9.67575 -1.41305 -1.41874
LeftFoot  -10.5524 0.042663 3.00165
LeftToes  -4.03379e-008 1.61488e-010 -5.81581e-011
362
root  25.0747 39.1247 14.1263 -176.524 -64.6819 169.48
RightUpLeg  -15.8469 -12.5665 -7.31756
RightLeg  9.3614 -2.61209 0.159251
RightFoot  -6.60572 -0.258064 5.14164
RightToes  -2.21189e-009 0 -3.6325e-017
Spine  11.724 -2.11132 -1.82812
Spine1  3.91957 -2.32307 -0.772745
HEad  15.1761 -41.4758 -34.2768
LeftShoulder1  0.0407784 3.38851 -29.2221
LeftArm  3.80461 -3.44276 -47.3322
LeftForeArm  15.5877 -16.3436 -6.58003
LeftHand  -0.0651009 3.51882 3.01518
RightShoulder  -0.350009 -4.6186 24.358
RightArm  12.6881 -4.05613 47.4157
RightForeArm  -1.98902 27.7782 6.10277
RightHand  -0.713381 6.95988 -7.03817
LeftUpLeg  8.11441 7.24684 -2.09264
LeftLeg  9.33646 -4.01158 -1.69485
LeftFoot  -11.693 0.0803465 3.20741
LeftToes  -4.03379e-008 1.61488e-010 -5.81581e-011
363
root  24.0958 39.0209 13.642 -175.425 -67.3358 167.992
RightUpLeg  -15.3454 -10.2271 -8.61309
RightLeg  2.68164 -3.91805 0.48582
RightFoot  -5.67003 -0.302498 5.33033
RightToes  -2.21189e-009 0 -3.6325e-017
Spine  11.4865 -2.33275 -0.909621
Spine1  4.21521 -2.38998 -1.04505
HEad  15.7754 -42.0875 -33.9808
LeftShoulder1  0.0549683 3.34835 -29.237
LeftArm  4.51527 -4.14065 -48.5531
LeftForeArm  15.0559 -16.5419 -6.56828
LeftHand  -0.0737906 3.71169 3.93706
RightShoulder  -0.319716 -4.52782 24.1196
RightArm  12.992 -3.25753 47.2267
RightForeArm  -1.63107 27.733 6.07329
RightHand  -0.738331 7.27447 -7.1009
LeftUpLeg  10.1957 7.25629 -1.80329
LeftLeg  9.33475 -6.64227 -1.76802
LeftFoot  -13.0388 0.130071 3.50875
LeftToes  -4.03379e-008 1.61488e-010 -5.81581e-011
364
root  23.0277 38.8285 13.0752 -174.054 -69.4411 165.882
RightUpLeg  -15.1353 -10.2834 -9.38219
RightLeg  -0.871244 -1.07493 -0.0856874
RightFoot  -5.37726 -0.306681 5.17845
RightToes  -2.21189e-009 0 -3.6325e-017
Spine  11.5357 -2.2448 -0.414489
Spine1  4.13245 -2.24722 -1.08743
HEad  16.0134 -41.7314 -34.145
LeftShoulder1  0.0896233 3.25065 -29.271
LeftArm  5.0195 -4.18441 -49.6008
LeftForeArm  16.0235 -16.3398 -6.71242
LeftHand  -0.0742546 3.46053 3.46681
RightShoulder  -0.290395 -4.43517 23.9992
RightArm  14.0172 -2.59111 46.7578
RightForeArm  -1.7952 26.6498 5.82455
RightHand  -0.639855 6.84656 -6.41279
LeftUpLeg  12.6417 7.25208 -1.58201
LeftLeg  9.73769 -8.71753 -1.63397
LeftFoot  -14.7748 0.201608 3.73008
LeftToes  -4.03379e-008 1.61488e-010 -5.81581e-011
365
root  21.8777 38.5522 12.4076 -173.442 -71.2653 164.458
RightUpLeg  -14.8944 -10.3593 -9.89339
RightLeg  -0.791665 1.28158 -0.657585
RightFoot  -5.31474 -0.322087 5.384
RightToes  -2.21189e-009 0 -3.6325e-017
Spine  10.8739 -2.06331 0.224996
Spine1  5.08312 -2.03146 -1.10936
HEad  15.3424 -42.6408 -32.5994
LeftShoulder1  0.0768727 3.28878 -29.5745
LeftArm  7.07807 -3.70481 -50.1183
LeftForeArm  15.5803 -17.1927 -6.46111
LeftHand  -0.056216 3.42921 2.34045
RightShoulder  -0.289652 -4.43115 24.0118
RightArm  15.8222 -1.38043 46.4805
RightForeArm  -2.65223 24.5929 5.39745
RightHand  -0.64701 6.40754 -6.69764
LeftUpLeg  15.1146 7.38049 -0.766753
LeftLeg  10.8155 -10.8177 -1.54299
LeftFoot  -16.8319 0.289904 3.97488
LeftToes  -4.03379e-008 1.61488e-010 -5.81581e-011
